<?xml version="1.0" encoding="UTF-8"?>
<svg xmlns="http://www.w3.org/2000/svg" viewBox="0 0 315.81 77.16">
  <defs>
    <style>
      .cls-1 {
        fill: #dc5968;
      }
    </style>
  </defs>
  <g id="Layer_1" data-name="Layer 1"/>
  <g id="Layer_2" data-name="Layer 2">
    <g id="Layer_2-2" data-name="Layer 2">
      <g>
        <path class="cls-1" d="M85.71,25.2V59.39c0,.51-.41,.92-.92,.92h-17.19c-.51,0-.92-.41-.92-.92V26.11c0-2.14-.12-4.59-1.02-6.57-.41-.84-.96-1.54-1.62-2.05-1.08-.84-2.47-1.25-4.25-1.25-3.32,0-5.89,1.14-6.7,2.98-.93,1.99-.93,4.71-.93,6.9V59.39c0,.51-.41,.92-.92,.92h-16.73c-.51,0-.92-.41-.92-.92l-.04-33.28c0-2.14-.12-4.59-1.02-6.57-.41-.84-.96-1.54-1.62-2.05-1.08-.84-2.47-1.25-4.25-1.25-3.32,0-5.89,1.14-6.7,2.98-.93,1.99-.93,4.71-.93,6.9V59.39c0,.51-.41,.92-.92,.92H.92c-.51,0-.92-.41-.92-.92V.92C0,.41,.41,0,.92,0H17.03c.51,0,.92,.41,.92,.92V3.39c0,.37,.41,.59,.72,.38,12.98-8.93,25.62,.98,25.75,1.09,.46,.36,.9,.75,1.3,1.14,.35,.35,.68,.7,1,1.04,.38,.42,1.04,.4,1.4-.04,.96-1.18,2.16-2.29,3.52-3.26,1.76-1.26,3.67-2.18,5.51-2.69,10.87-3.71,20.31,3.73,20.41,3.8,.46,.36,.9,.75,1.3,1.14h0c5.88,5.91,6.87,10.7,6.87,19.19Z"/>
        <path class="cls-1" d="M150.25,30.18c0,16.64-13.73,30.18-30.6,30.18s-30.6-13.54-30.6-30.18S102.78,0,119.65,0s30.6,13.54,30.6,30.18Zm-17.26,0c0-7.25-5.98-13.16-13.34-13.16s-13.34,5.9-13.34,13.16,5.98,13.16,13.34,13.16,13.34-5.9,13.34-13.16Z"/>
        <path class="cls-1" d="M197.38,41.99c-.15,2.05-.67,4.22-1.57,6.48-3.5,7.45-11.59,11.89-21.65,11.89-1.39,0-2.82-.09-4.25-.25-4.53-.53-8.49-1.74-11.77-3.58-3.38-2.29-5.95-5.48-7.69-9.51-.24-.54,.08-1.17,.66-1.29l16.03-3.45c.37-.08,.76,.08,.97,.39,1.12,1.68,3.03,2.49,4.07,2.62,2.45,.29,3.72-.36,4.36-.97,.64-.61,.94-1.44,.82-2.34-.25-2.03-1.47-2.97-7.67-5.93l-.08-.04c-1.23-.59-2.77-1.32-4.49-2.17-1.18-.51-2.34-1.07-3.41-1.64l-.09-.05c-.15-.09-.3-.18-.47-.27-5.56-3.19-8.81-7.07-9.65-11.54-1.19-6.39,2.91-11.81,3.75-12.83,1.24-1.4,2.69-2.63,4.3-3.66,4.86-3.1,11.14-4.39,17.67-3.62,3.91,.46,7.46,1.51,10.55,3.13,1.47,.77,2.83,1.68,4.05,2.71,.84,.74,3.46,3.34,4.27,7.31,.1,.5-.23,.99-.73,1.1l-15.78,3.19c-.45,.09-.88-.16-1.05-.58-.44-1.1-1.41-2.2-3.5-2.45-1.38-.16-2.63,.25-3.43,1.13-.6,.67-.86,1.5-.66,2.19,.3,1.05,1.38,2.72,7.27,5.11,1.17,.46,2.24,.87,3.32,1.31,1.37,.49,2.7,1.02,3.94,1.57h0c3.75,1.75,12.41,6.82,11.9,16.06Z"/>
        <path class="cls-1" d="M315.75,1.23l-19.06,51.33-8.45,23.98c-.13,.37-.48,.61-.87,.61h-17.9c-.63,0-1.07-.62-.87-1.21l7.01-20.78c.07-.2,.06-.41,0-.61L255.5,1.24c-.22-.6,.22-1.24,.87-1.24h16.04c.39,0,.73,.24,.87,.6l11.44,29.31c.3,.81,1.45,.8,1.73-.02L297.05,.62c.13-.37,.48-.62,.87-.62h16.96c.64,0,1.08,.63,.87,1.23Z"/>
        <path class="cls-1" d="M257.36,42.82c-4.86,10.34-15.48,17.53-27.78,17.53-16.87,0-30.6-13.54-30.6-30.17S212.71,0,229.58,0s30.6,13.54,30.6,30.17c0,1.83-.17,3.62-.48,5.36-.08,.44-.47,.77-.92,.77h-40.36c-.72,0-1.16,.78-.79,1.4,2.48,4.21,6.92,6.82,11.83,6.82,4.17,0,8.06-1.84,10.83-5.38,.21-.27,.55-.41,.89-.35l15.46,2.78c.6,.11,.97,.76,.71,1.31m-15.19-20.35c-.72-4.25-5.63-7.56-11.88-7.56-5.68,0-11.07,3.29-11.87,7.54-.11,.57,.33,1.09,.91,1.09h21.93c.57,0,1.01-.52,.91-1.08Z"/>
      </g>
    </g>
  </g>
</svg>